HIERARCHY
ROOT RootJoint
{
    OFFSET   0.000000   0.000000   0.000000
    CHANNELS 6 Xposition Yposition Zposition Xrotation Yrotation Zrotation
    JOINT pelvis_lowerback
    {
        OFFSET   0.000000   0.093605   0.000000
        CHANNELS 3 Xrotation Yrotation Zrotation
        JOINT lowerback_torso
        {
            OFFSET   0.000000   0.100000   0.000000
            CHANNELS 3 Xrotation Yrotation Zrotation
            JOINT torso_head
            {
                OFFSET   0.000000   0.282350   0.000000
                CHANNELS 3 Xrotation Yrotation Zrotation
                End Site
                {
                    OFFSET   0.000000   0.192650   0.000000
                }
            }
            JOINT rTorso_Clavicle
            {
                OFFSET  -0.001000   0.157500   0.000000
                CHANNELS 3 Xrotation Yrotation Zrotation
                JOINT rShoulder
                {
                    OFFSET  -0.117647   0.000000   0.000000
                    CHANNELS 3 Xrotation Yrotation Zrotation
                    JOINT rElbow
                    {
                        OFFSET  -0.245000   0.000000   0.000000
                        CHANNELS 3 Xrotation Yrotation Zrotation
                        JOINT rWrist
                        {
                            OFFSET  -0.240000   0.000000   0.000000
                            CHANNELS 3 Xrotation Yrotation Zrotation
                            End Site
                            {
                                OFFSET  -0.116353  -0.002500   0.000000
                            }
                        }
                    }
                }
            }
            JOINT lTorso_Clavicle
            {
                OFFSET   0.001000   0.157500   0.000000
                CHANNELS 3 Xrotation Yrotation Zrotation
                JOINT lShoulder
                {
                    OFFSET   0.117647   0.000000   0.000000
                    CHANNELS 3 Xrotation Yrotation Zrotation
                    JOINT lElbow
                    {
                        OFFSET   0.245000   0.000000   0.000000
                        CHANNELS 3 Xrotation Yrotation Zrotation
                        JOINT lWrist
                        {
                            OFFSET   0.240000   0.000000   0.000000
                            CHANNELS 3 Xrotation Yrotation Zrotation
                            End Site
                            {
                                OFFSET   0.116353  -0.002500   0.000000
                            }
                        }
                    }
                }
            }
        }
    }
    JOINT rHip
    {
        OFFSET  -0.100000  -0.051395   0.000000
        CHANNELS 3 Xrotation Yrotation Zrotation
        JOINT rKnee
        {
            OFFSET   0.000000  -0.410000   0.000000
            CHANNELS 3 Xrotation Yrotation Zrotation
            JOINT rAnkle
            {
                OFFSET   0.000000  -0.390000   0.000000
                CHANNELS 3 Xrotation Yrotation Zrotation
                JOINT rToeJoint
                {
                    OFFSET   0.000000  -0.050000   0.130000
                    CHANNELS 3 Xrotation Yrotation Zrotation
                    End Site
                    {
                        OFFSET  -0.010000   0.002000   0.060000
                    }
                }
            }
        }
    }
    JOINT lHip
    {
        OFFSET   0.100000  -0.051395   0.000000
        CHANNELS 3 Xrotation Yrotation Zrotation
        JOINT lKnee
        {
            OFFSET   0.000000  -0.410000   0.000000
            CHANNELS 3 Xrotation Yrotation Zrotation
            JOINT lAnkle
            {
                OFFSET   0.000000  -0.390000   0.000000
                CHANNELS 3 Xrotation Yrotation Zrotation
                JOINT lToeJoint
                {
                    OFFSET   0.000000  -0.050000   0.130000
                    CHANNELS 3 Xrotation Yrotation Zrotation
                    End Site
                    {
                        OFFSET   0.010000   0.002000   0.060000
                    }
                }
            }
        }
    }
}
MOTION
Frames: 17
Frame Time:   0.008333
 -2.376719   0.925631   3.975860   0.000000   0.000000   0.000000   0.000000   0.000000   0.000000   0.000000   0.000000   0.000000   0.000000   0.000000   0.000000   0.000000   0.000000   0.000000   0.000000   0.000000   0.000000   0.000000   0.000000   0.000000   0.000000   0.000000   0.000000   0.000000   0.000000   0.000000   0.000000   0.000000   0.000000   0.000000   0.000000   0.000000   0.000000   0.000000   0.000000   0.000000   0.000000   0.000000   0.000000   0.000000   0.000000   0.000000   0.000000   0.000000   0.000000   0.000000   0.000000   0.000000   0.000000   0.000000   0.000000   0.000000   0.000000   0.000000   0.000000   0.000000   0.000000   0.000000   0.000000
 -2.376418   0.926399   3.974959   0.319006  -0.051757   0.276571  -0.532231   0.278781  -0.213788   0.387529  -0.286507  -0.132290  -0.041620   0.044114  -0.007226   0.263639  -0.219758   0.624039   0.987526   0.451462   1.912532   0.019515   0.900237  -0.011338   0.554052  -0.793255  -2.701905   0.329844   0.042017  -0.850402   1.293063  -0.110182  -1.688785   0.013882  -0.606671   0.009592   0.528473   0.438493   2.962679  -1.033611   0.091999  -0.511369   1.916350   0.003955   0.000499  -1.396092  -0.386251   0.085527  -0.179060  -0.000234   0.000546  -0.777190  -0.153907  -0.147109   0.902779  -0.001034  -0.001638  -0.615371   0.337888  -0.119635   0.501406  -0.000034   0.000561
 -2.376132   0.927648   3.973878   0.542989  -0.050958   0.600701  -0.974471   0.532880  -0.451239   0.830181  -0.587841  -0.317715  -0.066880   0.084176  -0.018350   0.521188  -0.309360   1.999701   1.933195   1.038575   4.433943   0.045919   1.798231  -0.020492   1.133684  -1.279895  -4.628295   0.651899  -0.053795  -2.501120   2.551093  -0.360795  -4.035058   0.033131  -1.214751   0.017442   1.098567   0.682891   5.146138  -1.967191   0.182629  -1.213029   3.911615   0.009842   0.001161  -2.692785  -0.756934   0.153122  -0.374273  -0.000723   0.000944  -1.524884  -0.309889  -0.181704   1.817195  -0.003208  -0.002555  -1.188874   0.656064  -0.228058   0.933727  -0.000701   0.001034
 -2.375929   0.928916   3.972739   0.734272  -0.030911   0.926778  -1.362042   0.767885  -0.697953   1.266708  -0.878344  -0.526860  -0.089381   0.121565  -0.026437   0.759405  -0.293271   3.821181   2.825147   1.738011   7.349598   0.072354   2.662808  -0.027140   1.697309  -1.563600  -5.681410   0.942056  -0.253861  -4.630198   3.751927  -0.739625  -6.782993   0.052923  -1.808615   0.023322   1.658184   0.752538   6.380792  -2.809477   0.279831  -2.017771   5.807680   0.015951   0.001313  -3.900658  -1.106528   0.206865  -0.552646  -0.001252   0.001175  -2.259198  -0.455995  -0.074680   2.664348  -0.005871  -0.002910  -1.724469   0.956067  -0.325178   1.319329  -0.001681   0.001398
 -2.375845   0.929860   3.971616   0.913194  -0.012714   1.245607  -1.707993   0.991186  -0.958951   1.680510  -1.151036  -0.762570  -0.112406   0.156701  -0.028409   0.975089  -0.201666   5.889761   3.659669   2.536715  10.528542   0.095529   3.489101  -0.031732   2.247825  -1.697914  -6.089444   1.194169  -0.522522  -7.054952   4.846558  -1.211042  -9.662480   0.070484  -2.384500   0.027314   2.210773   0.669994   6.853106  -3.575964   0.384074  -2.887878   7.585392   0.021474   0.000755  -5.028332  -1.435313   0.249130  -0.723193  -0.001777   0.001328  -2.981024  -0.594796   0.161287   3.439599  -0.008568  -0.002983  -2.225330   1.238873  -0.411964   1.663320  -0.002736   0.001617
 -2.375862   0.930215   3.970572   1.086664  -0.003261   1.551879  -2.020660   1.206965  -1.232111   2.067235  -1.402321  -1.014084  -0.135192   0.189450  -0.030648   1.166569  -0.058754   8.095323   4.411927   3.397805  13.801427   0.113759   4.275671  -0.034511   2.786371  -1.714160  -6.027822   1.405693  -0.829219  -9.621027   5.836861  -1.749310 -12.559708   0.084506  -2.938020   0.029743   2.752700   0.474120   6.813874  -4.274095   0.494404  -3.800026   9.248850   0.026092  -0.000359  -6.081547  -1.744015   0.281791  -0.886398  -0.002259   0.001432  -3.685736  -0.729369   0.505991   4.149641  -0.011011  -0.002904  -2.693703   1.505153  -0.489482   1.971108  -0.003714   0.001714
 -2.375934   0.929783   3.969645   1.257063  -0.002395   1.842018  -2.306601   1.416942  -1.509342   2.426325  -1.631537  -1.267822  -0.156768   0.219895  -0.036558   1.334522   0.114672  10.369105   5.060092   4.274266  17.006330   0.126387   5.021824  -0.035675   3.310744  -1.638018  -5.623359   1.578326  -1.150500 -12.228745   6.727678  -2.331172 -15.406665   0.094565  -3.466013   0.030898   3.278906   0.200857   6.445172  -4.908379   0.609649  -4.738681  10.805892   0.029738  -0.001787  -7.065224  -2.033497   0.306363  -1.041402  -0.002676   0.001495  -4.368765  -0.861800   0.937416   4.802030  -0.013038  -0.002732  -3.131569   1.755565  -0.558770   2.247610  -0.004528   0.001724
 -2.375842   0.927915   3.968484   1.391792  -0.123080   2.112664  -2.496298   1.624709  -1.702367   2.790725  -1.731574  -1.542759  -0.284056   0.065517  -0.133850   1.592567   0.603416  12.093987   5.516817   4.995377  19.943384   0.132385   5.787780  -0.037554   3.718661  -1.535272  -4.265539   1.726974  -1.492967 -14.125467   7.461268  -3.177307 -18.202285   0.100907  -4.036192   0.032375   3.646792  -0.014910   4.975933  -5.598545   0.602878  -5.624257  12.364711   0.031618  -0.006668  -7.865728  -2.445344   0.401572  -1.037217  -0.002122   0.001171  -4.934945  -0.634744   1.322300   5.263809  -0.013030  -0.001495  -3.322623   2.001863  -0.753246   2.432345  -0.004316   0.001993
 -2.375673   0.924821   3.967277   1.522104  -0.255559   2.363013  -2.649716   1.816435  -1.864826   3.128977  -1.815969  -1.796866  -0.404804  -0.084885  -0.232108   1.784218   1.146903  13.517476   5.893428   5.736668  22.551911   0.132133   6.521778  -0.038356   4.117547  -1.355823  -3.033481   1.826269  -1.883617 -15.715533   8.094198  -4.046990 -20.682832   0.102266  -4.592778   0.033069   4.005508  -0.341716   3.594557  -6.282280   0.595205  -6.447853  13.811213   0.031795  -0.010589  -8.610188  -2.834337   0.484089  -1.015390  -0.001599   0.000812  -5.463900  -0.411255   1.661956   5.676663  -0.012488  -0.000637  -3.499019   2.234118  -0.934075   2.616096  -0.004048   0.002156
 -2.375459   0.920627   3.966131   1.650896  -0.385742   2.593257  -2.786214   1.993422  -2.005701   3.435303  -1.895820  -2.027125  -0.514449  -0.225359  -0.324080   1.924597   1.695456  14.720767   6.203219   6.467517  24.893239   0.127858   7.219237  -0.038077   4.504388  -1.124588  -2.039641   1.888013  -2.287105 -17.077031   8.642246  -4.904922 -22.900994   0.100007  -5.123849   0.032894   4.351514  -0.720433   2.453017  -6.942748   0.597107  -7.207298  15.147667   0.030792  -0.013287  -9.305323  -3.198210   0.555950  -0.994001  -0.001191   0.000532  -5.955793  -0.204632   1.961427   6.056699  -0.011678  -0.000052  -3.663303   2.450995  -1.102413   2.785969  -0.003714   0.002199
 -2.375217   0.915422   3.965098   1.777635  -0.509261   2.804596  -2.915510   2.156173  -2.128390   3.709855  -1.973179  -2.234721  -0.614923  -0.356311  -0.409864   2.029289   2.224615  15.756010   6.459740   7.168824  27.013559   0.121048   7.875934  -0.036894   4.875238  -0.875076  -1.239992   1.923923  -2.681423 -18.258732   9.119483  -5.732244 -24.900732   0.095341  -5.624766   0.031975   4.680530  -1.111517   1.515406  -7.572658   0.607169  -7.904010  16.385541   0.029040  -0.014941  -9.954502  -3.538160   0.618605  -0.974047  -0.000876   0.000322  -6.408661  -0.013407   2.223630   6.410348  -0.010730   0.000343  -3.816196   2.653426  -1.259186   2.942814  -0.003347   0.002161
 -2.374928   0.913144   3.964242   1.777776  -0.421569   2.490911  -2.972646   2.210457  -1.816631   4.034520  -2.111601  -2.262005  -0.708128  -0.481012  -0.477186   2.113617   2.727065  16.830574   6.676423   7.822849  28.971727   0.113821   8.475580  -0.035302   5.226479  -0.697021  -0.666926   1.912887  -3.109399 -19.567970   9.516561  -6.566870 -26.815331   0.090647  -6.100571   0.030561   4.993378  -1.487944   0.761937  -8.461271   0.690533  -7.632139  18.153705   0.023751  -0.011601 -10.855326  -3.621721   1.088297  -0.833734  -0.001223   0.000250  -6.744793   0.140419   2.865600   6.743966  -0.009469   0.001292  -3.947713   2.843805  -1.402971   3.165249  -0.002962   0.002720
 -2.374254   0.912321   3.963752   1.765497  -0.134943   2.819782  -3.040976   2.234400  -2.098645   4.338304  -2.281627  -2.461829  -0.785867  -0.598887  -0.544221   2.211601   3.172690  17.906540   6.863115   8.438998  30.895824   0.106202   9.038268  -0.033587   5.558814  -0.515168  -0.001167   1.890363  -3.509193 -20.677765   9.864068  -7.355983 -28.548006   0.085031  -6.549571   0.028356   5.291713  -1.892657   0.031875  -8.999303   0.749340  -8.045856  19.357645   0.020012  -0.007781 -11.566944  -3.832620   1.184195  -0.799030  -0.000986   0.000199  -7.185006   0.387563   2.528030   7.385083  -0.007329   0.003995  -3.712974   3.074149  -1.695811   3.339813  -0.001882   0.003309
 -2.373726   0.911968   3.963185   1.831885  -0.043416   3.053815  -3.018539   2.329288  -2.324090   4.537675  -2.336507  -2.592020  -0.937288  -0.722238  -0.635593   2.317808   3.625698  18.513829   6.882361   8.960944  32.432231   0.096323   9.614371  -0.031808   5.811465  -0.130927   1.379945   1.932141  -3.810058 -21.246107   9.943995  -8.094031 -30.019890   0.078768  -7.069791   0.026125   5.541727  -2.426807  -1.404011  -9.377599   0.780835  -8.348516  19.955119   0.016298  -0.006355 -11.902158  -3.971002   1.265886  -0.619496  -0.000818  -0.000017  -7.381167   0.705844   2.291186   7.467592  -0.005825   0.003479  -3.455168   3.211698  -1.793808   3.528244  -0.001271   0.003506
 -2.373278   0.911803   3.962402   2.000804  -0.048636   3.250676  -2.979396   2.446426  -2.528983   4.683755  -2.351786  -2.696412  -1.081769  -0.836564  -0.720382   2.370864   4.070946  18.801285   6.879832   9.448450  33.672800   0.085005  10.158052  -0.029946   6.045102   0.275975   2.513949   1.958513  -4.085041 -21.484961  10.012190  -8.756329 -31.201295   0.070443  -7.552411   0.024075   5.766156  -2.957168  -2.601083  -9.805936   0.786880  -8.610152  20.347393   0.013139  -0.005534 -12.096793  -4.122864   1.317306  -0.429061  -0.000641  -0.000414  -7.578080   0.995541   2.094299   7.376846  -0.004694   0.002579  -3.282616   3.336489  -1.869817   3.696538  -0.000833   0.003352
 -2.372875   0.911752   3.961481   2.225924  -0.111776   3.410463  -2.916734   2.566854  -2.706758   4.807209  -2.350375  -2.781327  -1.212425  -0.943004  -0.798919   2.387620   4.497332  18.866694   6.863625   9.898341  34.682683   0.073567  10.666779  -0.027975   6.266587   0.652943   3.330909   1.973429  -4.338821 -21.498688  10.073815  -9.350595 -32.155256   0.061475  -7.994804   0.022184   5.977104  -3.414707  -3.484707 -10.257967   0.787612  -8.829184  20.630313   0.010549  -0.004873 -12.295821  -4.268680   1.367728  -0.247272  -0.000515  -0.000791  -7.781348   1.259651   1.935972   7.202994  -0.003810   0.001801  -3.161752   3.451424  -1.932479   3.844199  -0.000523   0.003037
 -2.372489   0.911770   3.960496   2.482464  -0.216623   3.541991  -2.833480   2.684163  -2.863247   4.921321  -2.341070  -2.850688  -1.329102  -1.042226  -0.871617   2.383865   4.896999  18.779078   6.841034  10.308631  35.515304   0.062775  11.139936  -0.025910   6.478685   0.984471   3.893666   1.982712  -4.570205 -21.357370  10.131937  -9.883849 -32.934343   0.052746  -8.399627   0.020427   6.179181  -3.793057  -4.115119 -10.717288   0.786847  -9.015148  20.838695   0.008449  -0.004285 -12.495245  -4.407263   1.416328  -0.083033  -0.000422  -0.001090  -7.986207   1.502293   1.806237   6.985097  -0.003108   0.001235  -3.074244   3.557734  -1.985351   3.976113  -0.000302   0.002662
